<svg width="24" height="24" viewBox="0 0 24 24" fill="none" xmlns="http://www.w3.org/2000/svg">
<path d="M20.5715 3.42969H22.2857C22.5131 3.42969 22.7311 3.51999 22.8918 3.68074C23.0526 3.84148 23.1429 4.0595 23.1429 4.28683V18.0011C23.1429 18.2284 23.0526 18.4465 22.8918 18.6072C22.7311 18.768 22.5131 18.8583 22.2857 18.8583H1.71432C1.48699 18.8583 1.26897 18.768 1.10823 18.6072C0.947484 18.4465 0.857178 18.2284 0.857178 18.0011V4.28683C0.857178 4.0595 0.947484 3.84148 1.10823 3.68074C1.26897 3.51999 1.48699 3.42969 1.71432 3.42969H3.42861" stroke="white" stroke-width="1.5" stroke-linecap="round" stroke-linejoin="round"/>
<path d="M10.2858 18.8594L8.57153 23.1451" stroke="white" stroke-width="1.5" stroke-linecap="round" stroke-linejoin="round"/>
<path d="M13.7144 18.8594L15.4286 23.1451" stroke="white" stroke-width="1.5" stroke-linecap="round" stroke-linejoin="round"/>
<path d="M6.85718 23.1445H17.1429" stroke="white" stroke-width="1.5" stroke-linecap="round" stroke-linejoin="round"/>
<path d="M12.0515 3.42969V6.00112" stroke="white" stroke-width="1.5" stroke-linecap="round" stroke-linejoin="round"/>
<path d="M6.85718 6.42969L9.08575 7.7154" stroke="white" stroke-width="1.5" stroke-linecap="round" stroke-linejoin="round"/>
<path d="M6.85718 12.4302L9.08575 11.1445" stroke="white" stroke-width="1.5" stroke-linecap="round" stroke-linejoin="round"/>
<path d="M12.0515 15.4308V12.8594" stroke="white" stroke-width="1.5" stroke-linecap="round" stroke-linejoin="round"/>
<path d="M17.2457 12.4302L15.0171 11.1445" stroke="white" stroke-width="1.5" stroke-linecap="round" stroke-linejoin="round"/>
<path d="M17.2457 6.42969L15.0171 7.7154" stroke="white" stroke-width="1.5" stroke-linecap="round" stroke-linejoin="round"/>
<path d="M12.0514 12.8571C13.9449 12.8571 15.4799 11.3221 15.4799 9.42857C15.4799 7.53502 13.9449 6 12.0514 6C10.1578 6 8.6228 7.53502 8.6228 9.42857C8.6228 11.3221 10.1578 12.8571 12.0514 12.8571Z" stroke="white" stroke-width="1.5" stroke-linecap="round" stroke-linejoin="round"/>
</svg>
