<svg width="24" height="24" viewBox="0 0 24 24" fill="none" xmlns="http://www.w3.org/2000/svg">
<g clip-path="url(#clip0_277_1462)">
<path d="M7.71432 22.2857C11.5014 22.2857 14.5715 19.2156 14.5715 15.4286C14.5715 11.6415 11.5014 8.57141 7.71432 8.57141C3.92723 8.57141 0.857178 11.6415 0.857178 15.4286C0.857178 19.2156 3.92723 22.2857 7.71432 22.2857Z" stroke="white" stroke-width="1.5" stroke-linecap="round" stroke-linejoin="round"/>
<path d="M16.2859 22.2857C20.0729 22.2857 23.143 19.2156 23.143 15.4286C23.143 11.6415 20.0729 8.57141 16.2859 8.57141C12.4988 8.57141 9.42871 11.6415 9.42871 15.4286C9.42871 19.2156 12.4988 22.2857 16.2859 22.2857Z" stroke="white" stroke-width="1.5" stroke-linecap="round" stroke-linejoin="round"/>
<path d="M12 15.4285C15.7871 15.4285 18.8571 12.3585 18.8571 8.57138C18.8571 4.78428 15.7871 1.71423 12 1.71423C8.21287 1.71423 5.14282 4.78428 5.14282 8.57138C5.14282 12.3585 8.21287 15.4285 12 15.4285Z" stroke="white" stroke-width="1.5" stroke-linecap="round" stroke-linejoin="round"/>
</g>
<defs>
<clipPath id="clip0_277_1462">
<rect width="24" height="24" fill="white"/>
</clipPath>
</defs>
</svg>
